# xmcd CD database file
#
# Track frame offsets:
#	150
#	14611
#	29578
#	42623
#	58170
#	71758
#	92001
#	114810
#	127101
#	149346
#	159754
#	176766
#	195769
#
# Disc length: 2880 seconds
#
# Revision: 2
# Processed by: cddbd v1.5.1PL0 Copyright (c) Steve Scherf et al.
# Submitted via: CDex 1.51
#
DISCID=b50b3e0d
DTITLE=Kasey Chambers - Barricades and Brickwalls
DYEAR=2001
DGENRE=Country
TTITLE0=Barricades and Brickwalls
TTITLE1=Not Pretty Enough
TTITLE2=On A Bad Day
TTITLE3=Runaway Train
TTITLE4=A Little Bit Lonesome
TTITLE5=Nullarbor
TTITLE6=Million Tears
TTITLE7=Still Feeling Blue
TTITLE8=This Mountain
TTITLE9=Crossfire
TTITLE10=Falling Into You
TTITLE11=If I Were You
TTITLE12=I Still Pray
EXTD=YEAR: 2001
EXTT0=
EXTT1=
EXTT2=
EXTT3=
EXTT4=
EXTT5=
EXTT6=
EXTT7=
EXTT8=
EXTT9=
EXTT10=
EXTT11=
EXTT12=
PLAYORDER=
